<?xml version="1.0" encoding="UTF-8"?><svg xmlns="http://www.w3.org/2000/svg" viewBox="0 0 234.35 106.84"><defs><style>.d{fill:#5ec8e5;}</style></defs><g id="a"/><g id="b"/><g id="c"><g><path class="d" d="M31.89,38.66c0,8.62-6.92,15.68-18.51,15.68H1.23V9.84H14.87c11.3,0,16.25,11.09,13.42,18.79,2.4,2.97,3.6,6.36,3.6,10.03ZM7.94,31.31h4.45c6,0,9.96-2.4,9.96-7.28,0-3.81-2.26-7.63-7.49-7.63-4.24,0-6.92,3.39-6.92,7.63v7.28Zm6.07,16.67c9.25,0,13.49-8.05,10.31-14.06-2.68,2.47-6.43,3.96-12.43,3.96h-3.96v10.1h6.07Z"/><path class="d" d="M98.22,10.53h6.36V54.33h-5.51c-8.76,0-11.94-5.23-13.28-13.28l-2.19-13.42c-1.06-6.36-2.12-11.16-7.2-11.44V54.33h-6.36V9.83h5.65c10.17,0,12.71,7.06,14.34,17.31l1.98,12.64c.78,4.87,2.33,8.55,6.22,8.9V10.53Z"/><path class="d" d="M135.22,32.01l2.54,22.32h-6.5l-1.84-16.53h-14.62v16.53h-6.36V10.53h6.36V31.86c10.45,0,16.21-8.69,16.21-20.84v-.49h6.36v.49c0,10.1-3.22,17.94-8.8,20.98h6.64Z"/><path class="d" d="M162.47,36.1h-14.34v11.87h19.99v6.36h-26.35V23.39c0-7.98,5.09-14.32,14.13-14.32,6,0,11.37,4,13.92,10.5l-6.22,2.9c-1.62-4.59-4.45-6.29-7.77-6.29-4.31,0-7.7,2.68-7.7,7.7v5.86h15.75l-1.41,6.36Z"/><path class="d" d="M201.82,53.55v.78h-6.36v-.78c0-6.22-.85-11.3-3.18-16.18-1.48,.57-3.18,.85-4.87,.85-2.61,0-5.51-.78-7.84-2.61v18.72h-6.36V24.8c0-8.83,6.15-15.73,14.2-15.73s14.34,6.97,14.34,14.95c0,3.88-1.48,7.28-3.96,9.82,3.25,5.79,4.03,12.22,4.03,19.71Zm-14.27-21.69c4.1,0,7.49-3.46,7.49-7.91s-2.24-8.67-7.49-8.67-7.56,4.29-7.56,8.67,3.39,7.91,7.56,7.91Z"/><path class="d" d="M212.59,27.7c10.6-.85,20.7,4.66,20.7,15.96v10.67h-27.05v-6.36h20.69v-3.88c0-9.04-8.68-10.74-17.23-10.03l-3.32,.28-.07-10.95c-.07-7.98,5.09-14.32,14.13-14.32,6,0,11.37,4,13.92,10.5l-6.22,2.9c-1.62-4.59-3.22-7.19-7.77-7.19-4.31,0-7.77,3.59-7.77,8.6v3.81Z"/><path class="d" d="M226.97,87.08c-11.9,.9-23.96-4.95-23.96-16.94h0c0-6.25,4.89-11.32,10.93-11.32h16.43v6.36h-15.84c-2.2,0-3.98,2.23-3.98,4.51h0c0,9.59,9.36,11.39,18.97,10.64l3.73-.3,.08,11.62c.08,8.47-5.71,15.19-15.87,15.19-6.75,0-13.71-4.95-15.63-13.7l6.36-.51c1.83,4.87,5.63,6.67,9.36,6.67,4.84,0,9.44-2.85,9.44-8.17v-4.05Z"/><path class="d" d="M33.18,58.9h31.83v6.36h-9.84v40.12h-6.36v-40.12h-15.63v-6.36Z"/><path class="d" d="M95.95,58.9h6.36v33.13c0,8.25-7.29,14.8-16.76,14.8s-16.76-6.56-16.76-14.8V58.9h6.36v33.13c0,4.57,5.39,8.06,10.4,8.06s10.4-3.49,10.4-8.06V58.9Z"/><path class="d" d="M125.22,58.83c7.4,0,14.56,4.65,14.56,15.25v16.85c0,10.68-7.24,14.45-14.72,14.45h-19V58.83h19.16Zm7,15.02c0-5.49-3.98-8.7-7.72-8.7l-12.09,.04v33.84l12.65-.04c3.5,0,7.16-2.11,7.16-7.67v-17.46Z"/><path class="d" d="M149.93,58.9v46.48h-6.36V58.9h6.36Z"/><path class="d" d="M200.17,82.53c0,14.86-10.74,24.31-23.87,24.31s-22.59-10.21-22.59-24.31,9.33-25.1,22.62-25.1,23.84,11.23,23.84,25.1Zm-6.36,0c0-2.59-.37-5.26-1.17-7.32-4.38,3.12-10.94,5.26-16.35,5.26s-10.66-1.83-15.04-4.95c-.8,2.13-1.19,4.5-1.19,7.01,0,10.82,7.32,17.95,16.23,17.95s17.52-7.13,17.52-17.95Zm-28.82-12.8c3.02,2.36,7.48,3.73,11.3,3.73s8.44-1.37,11.46-3.81c-3.02-2.9-6.97-5.36-11.43-5.36s-8.47,2.54-11.33,5.44Z"/><path class="d" d="M62.63,13.62c2.62,2.53,3.93,5.88,3.93,10.02v16.29c0,4.15-1.31,7.49-3.93,10.02-2.62,2.53-5.99,4.37-11.92,4.37s-10.09-1.83-12.71-4.37-3.93-5.88-3.93-10.02V23.64c0-4.15,1.31-7.49,3.93-10.02s6.2-4.55,12.71-4.55,9.3,2.01,11.92,4.55Zm-14.61-7.5h-7.65V0h7.65V6.12Zm11.91,17.53c0-2.21-.7-3.99-2.09-5.36s-2.96-2.8-7.13-2.8-6.52,1.43-7.91,2.8c-1.39,1.37-2.09,3.15-2.09,5.36v16.29c0,2.21,.7,3.99,2.09,5.36s3.25,2.61,7.91,2.61,5.74-1.25,7.13-2.61,2.09-3.15,2.09-5.36V23.64Zm.33-17.53h-7.65V0h7.65V6.12Z"/><path class="d" d="M15.97,84.12h-.4c-4.2,0-9.15-.44-11.72-2.82-2.56-2.37-3.85-5.5-3.85-9.39s1.28-7.01,3.85-9.39c2.56-2.37,5.95-3.56,10.14-3.56h15.39v6.29H13.23c-1.94,0-3.5,.54-4.66,1.62-1.17,1.08-1.75,3.24-1.75,5.04s.58,3.24,1.75,4.32,2.72,1.62,4.66,1.62h23.87v27.53H1.75v-6.4H15.92c2.18,0,8.7,.37,11.71-1.09,3.01-1.46,3.53-3.49,3.53-5.51s.11-5.17-2.81-7.09-12.38-1.17-12.38-1.17Z"/></g></g></svg>