<?xml version="1.0" encoding="UTF-8"?><svg xmlns="http://www.w3.org/2000/svg" viewBox="0 0 259.35 118.24"><defs><style>.d{fill:#231f20;}</style></defs><g id="a"><g><path class="d" d="M35.29,42.78c0,9.54-7.66,17.35-20.48,17.35H1.37V10.89h15.09c12.51,0,17.98,12.27,14.85,20.79,2.66,3.28,3.99,7.04,3.99,11.1Zm-26.5-8.13h4.92c6.64,0,11.02-2.66,11.02-8.05,0-4.22-2.5-8.44-8.29-8.44-4.69,0-7.66,3.75-7.66,8.44v8.05Zm6.72,18.45c10.24,0,14.93-8.91,11.41-15.56-2.97,2.74-7.11,4.38-13.76,4.38h-4.38v11.18h6.72Z"/><path class="d" d="M108.7,11.66h7.04V60.12h-6.1c-9.69,0-13.21-5.78-14.7-14.7l-2.42-14.85c-1.17-7.04-2.35-12.35-7.97-12.66V60.12h-7.04V10.87h6.25c11.26,0,14.07,7.82,15.87,19.15l2.19,13.99c.86,5.39,2.58,9.46,6.88,9.85V11.66Z"/><path class="d" d="M149.64,35.42l2.81,24.7h-7.19l-2.03-18.29h-16.18v18.29h-7.04V11.66h7.04v23.61c11.57,0,17.94-9.61,17.94-23.06v-.55h7.04v.55c0,11.18-3.56,19.86-9.74,23.22h7.35Z"/><path class="d" d="M179.8,39.95h-15.87v13.13h22.12v7.04h-29.16V25.88c0-8.83,5.63-15.84,15.63-15.84,6.64,0,12.59,4.43,15.4,11.62l-6.88,3.2c-1.8-5.08-4.92-6.96-8.6-6.96-4.77,0-8.52,2.97-8.52,8.52v6.49h17.43l-1.56,7.04Z"/><path class="d" d="M223.35,59.26v.86h-7.04v-.86c0-6.88-.94-12.51-3.52-17.9-1.64,.63-3.52,.94-5.39,.94-2.89,0-6.1-.86-8.68-2.89v20.72h-7.04V27.45c0-9.77,6.8-17.41,15.71-17.41s15.87,7.71,15.87,16.55c0,4.3-1.64,8.05-4.38,10.87,3.6,6.41,4.46,13.52,4.46,21.81Zm-15.79-24c4.53,0,8.29-3.83,8.29-8.76s-2.48-9.6-8.29-9.6-8.36,4.75-8.36,9.6,3.75,8.76,8.36,8.76Z"/><path class="d" d="M235.27,30.65c11.73-.94,22.9,5.16,22.9,17.67v11.8h-29.94v-7.04h22.9v-4.3c0-10.01-9.61-11.88-19.07-11.1l-3.67,.31-.08-12.12c-.08-8.83,5.63-15.84,15.63-15.84,6.64,0,12.59,4.43,15.4,11.62l-6.88,3.2c-1.8-5.08-3.57-7.96-8.6-7.96-4.77,0-8.6,3.97-8.6,9.52v4.22Z"/><path class="d" d="M251.18,96.37c-13.17,1-26.52-5.47-26.52-18.75h0c0-6.92,5.42-12.52,12.1-12.52h18.18v7.04h-17.53c-2.43,0-4.41,2.47-4.41,4.99h0c0,10.62,10.36,12.61,20.99,11.78l4.13-.33,.09,12.86c.09,9.37-6.32,16.81-17.57,16.81-7.47,0-15.17-5.48-17.3-15.16l7.04-.57c2.02,5.39,6.23,7.38,10.35,7.38,5.36,0,10.44-3.15,10.44-9.04v-4.48Z"/><path class="d" d="M36.72,65.19h35.23v7.04h-10.89v44.4h-7.04v-44.4h-17.3v-7.04Z"/><path class="d" d="M106.19,65.19h7.04v36.67c0,9.13-8.06,16.38-18.54,16.38s-18.54-7.26-18.54-16.38v-36.67h7.04v36.67c0,5.06,5.96,8.92,11.51,8.92s11.51-3.86,11.51-8.92v-36.67Z"/><path class="d" d="M138.58,65.1c8.19,0,16.12,5.15,16.12,16.88v18.65c0,11.81-8.01,15.99-16.29,15.99h-21.03v-51.52h21.21Zm7.75,16.62c0-6.08-4.4-9.63-8.54-9.63l-13.38,.04v37.45l14-.04c3.87,0,7.93-2.33,7.93-8.49v-19.32Z"/><path class="d" d="M165.92,65.19v51.43h-7.04v-51.43h7.04Z"/><path class="d" d="M221.52,91.34c0,16.44-11.89,26.9-26.42,26.9s-25-11.3-25-26.9,10.33-27.78,25.03-27.78,26.39,12.43,26.39,27.78Zm-7.04,0c0-2.87-.41-5.82-1.29-8.1-4.84,3.46-12.1,5.82-18.09,5.82s-11.8-2.02-16.64-5.48c-.88,2.36-1.32,4.98-1.32,7.76,0,11.97,8.1,19.86,17.97,19.86s19.39-7.89,19.39-19.86Zm-31.89-14.17c3.35,2.61,8.28,4.13,12.51,4.13s9.34-1.52,12.68-4.22c-3.35-3.2-7.72-5.94-12.65-5.94s-9.37,2.82-12.54,6.02Z"/><path class="d" d="M69.31,15.07c2.9,2.81,4.34,6.5,4.34,11.09v18.03c0,4.59-1.45,8.29-4.34,11.09s-6.63,4.83-13.19,4.83-11.17-2.03-14.06-4.83c-2.9-2.81-4.34-6.5-4.34-11.09V26.16c0-4.59,1.45-8.29,4.34-11.09s6.86-5.03,14.06-5.03,10.3,2.23,13.19,5.03ZM53.14,6.77h-8.46V0h8.46V6.77Zm13.18,19.4c0-2.44-.77-4.42-2.31-5.93s-3.28-3.09-7.89-3.09-7.22,1.58-8.76,3.09-2.31,3.49-2.31,5.93v18.03c0,2.44,.77,4.42,2.31,5.93s3.6,2.89,8.76,2.89,6.35-1.38,7.89-2.89,2.31-3.49,2.31-5.93V26.16Zm.36-19.4h-8.46V0h8.46V6.77Z"/><path class="d" d="M17.67,93.1h-.45c-4.65,0-10.13-.49-12.97-3.12-2.84-2.63-4.26-6.09-4.26-10.39s1.42-7.76,4.26-10.39c2.84-2.63,6.58-3.94,11.23-3.94h17.03v6.96H14.64c-2.15,0-3.87,.6-5.16,1.79-1.29,1.19-1.94,3.59-1.94,5.58s.64,3.58,1.94,4.78,3.01,1.79,5.16,1.79h26.42v30.46H1.94v-7.08h15.68c2.41,0,9.63,.41,12.96-1.2s3.91-3.87,3.91-6.1,.12-5.72-3.11-7.85-13.7-1.29-13.7-1.29Z"/></g></g><g id="b"/><g id="c"/></svg>